<?xml version="1.0" encoding="UTF-8" standalone="no"?>
<svg
   xmlns:dc="http://purl.org/dc/elements/1.1/"
   xmlns:cc="http://creativecommons.org/ns#"
   xmlns:rdf="http://www.w3.org/1999/02/22-rdf-syntax-ns#"
   xmlns:svg="http://www.w3.org/2000/svg"
   xmlns="http://www.w3.org/2000/svg"
   xmlns:sodipodi="http://sodipodi.sourceforge.net/DTD/sodipodi-0.dtd"
   xmlns:inkscape="http://www.inkscape.org/namespaces/inkscape"
   width="6.0639524mm"
   height="6.6143918mm"
   viewBox="0 0 6.0639525 6.6143919"
   version="1.1"
   id="svg8"
   inkscape:version="1.0.1 (3bc2e813f5, 2020-09-07)"
   sodipodi:docname="catPaw.svg">
  <title
     id="title673">cat paw</title>
  <defs
     id="defs2" />
  <sodipodi:namedview
     id="base"
     pagecolor="#ffffff"
     bordercolor="#666666"
     borderopacity="1.0"
     inkscape:pageopacity="0.0"
     inkscape:pageshadow="2"
     inkscape:zoom="2"
     inkscape:cx="-128.09595"
     inkscape:cy="-62.63815"
     inkscape:document-units="mm"
     inkscape:current-layer="layer1"
     inkscape:document-rotation="0"
     showgrid="false"
     inkscape:pagecheckerboard="true"
     inkscape:window-width="1920"
     inkscape:window-height="1017"
     inkscape:window-x="1912"
     inkscape:window-y="-8"
     inkscape:window-maximized="1"
     fit-margin-top="0"
     fit-margin-left="0"
     fit-margin-right="0"
     fit-margin-bottom="0" />
  <metadata
     id="metadata5">
    <rdf:RDF>
      <cc:Work
         rdf:about="">
        <dc:format>image/svg+xml</dc:format>
        <dc:type
           rdf:resource="http://purl.org/dc/dcmitype/StillImage" />
        <dc:title>cat paw</dc:title>
      </cc:Work>
    </rdf:RDF>
  </metadata>
  <g
     inkscape:label="Layer 1"
     inkscape:groupmode="layer"
     id="layer1"
     transform="translate(-23.178332,-72.83774)">
    <ellipse
       style="fill:#de87cd;stroke-width:0.00543964"
       id="path10-5"
       cx="80.016823"
       cy="-7.8333149"
       rx="0.52065134"
       ry="0.63721502"
       transform="rotate(75.086304)"
       inkscape:transform-center-x="0.38854431"
       inkscape:transform-center-y="0.51287977" />
    <ellipse
       style="fill:#de87cd;stroke-width:0.00543964"
       id="path10-5-0"
       cx="-67.160583"
       cy="-47.031868"
       rx="0.52065134"
       ry="0.63721502"
       transform="matrix(0.25736379,-0.96631459,-0.96631459,-0.25736379,0,0)"
       inkscape:transform-center-x="0.38854543"
       inkscape:transform-center-y="-0.51287818" />
    <ellipse
       style="fill:#de87cd;stroke-width:0.00506484"
       id="path10"
       cx="74.747597"
       cy="24.717415"
       rx="0.48477802"
       ry="0.59331036"
       transform="rotate(51.668782)" />
    <ellipse
       style="fill:#de87cd;stroke-width:0.00506484"
       id="path10-7"
       cx="-44.712486"
       cy="-69.732208"
       rx="0.48477802"
       ry="0.59331036"
       transform="matrix(0.62020653,-0.78443856,-0.78443856,-0.62020653,0,0)" />
    <path
       style="fill:#1f1c24;stroke-width:0.0101822"
       d="m 23.183324,75.626708 c 0.0018,-0.0196 0.0084,-0.09291 0.01454,-0.162915 0.03059,-0.34716 0.108842,-0.670586 0.21852,-0.903213 0.148685,-0.315361 0.367419,-0.508546 0.700669,-0.61883 0.155119,-0.05133 0.279097,-0.06939 0.475012,-0.06919 0.189885,1.94e-4 0.303775,0.01502 0.534565,0.0696 0.262015,0.06196 0.301481,0.06836 0.427651,0.06939 0.09506,7.79e-4 0.135576,-0.0034 0.182503,-0.01863 0.127299,-0.04142 0.205101,-0.119964 0.240673,-0.242957 0.06681,-0.230988 0.120353,-0.350023 0.214743,-0.477387 0.0607,-0.08191 0.188588,-0.204246 0.269979,-0.25827 0.313183,-0.207879 0.710143,-0.234115 1.036899,-0.06853 0.236528,0.119861 0.416224,0.333052 0.497196,0.589872 0.07981,0.253141 0.05269,0.51608 -0.07871,0.763089 -0.02467,0.04638 -0.04259,0.08659 -0.03982,0.08936 0.0028,0.0028 0.02638,-0.0041 0.05247,-0.01533 0.153068,-0.06573 0.393257,-0.08295 0.56611,-0.0406 0.09761,0.02391 0.249238,0.09083 0.326921,0.144282 0.07249,0.04988 0.18496,0.159875 0.23364,0.228512 0.289437,0.40809 0.235337,0.953694 -0.12977,1.30875 l -0.06115,0.05947 0.03578,0.04404 c 0.143732,0.176919 0.270739,0.445799 0.314191,0.665157 0.01993,0.100635 0.01752,0.327532 -0.0044,0.416073 -0.04572,0.184409 -0.1218,0.315016 -0.259656,0.445742 -0.236838,0.22459 -0.6034,0.343131 -0.942593,0.304822 -0.05542,-0.0063 -0.10235,-0.0098 -0.104289,-0.0079 -0.0019,0.0019 0.012,0.03525 0.03098,0.07403 0.184675,0.377296 0.120023,0.812145 -0.165929,1.11604 -0.131448,0.139696 -0.259405,0.220961 -0.435229,0.276411 -0.299478,0.09445 -0.630694,0.03669 -0.885606,-0.154432 -0.202066,-0.151501 -0.311076,-0.320858 -0.482779,-0.750044 -0.08676,-0.216863 -0.101649,-0.247441 -0.143933,-0.2956 -0.06903,-0.07862 -0.165306,-0.09742 -0.259228,-0.05061 -0.02808,0.01399 -0.08969,0.06038 -0.136913,0.103095 -0.117148,0.105948 -0.193607,0.158787 -0.308564,0.213243 -0.147189,0.06972 -0.266459,0.0975 -0.444237,0.103463 -0.109873,0.0037 -0.172285,6.7e-4 -0.243975,-0.01178 -0.434806,-0.07551 -0.816624,-0.375715 -1.023974,-0.805109 -0.171813,-0.355801 -0.231011,-0.808344 -0.227098,-1.736061 8.39e-4,-0.198808 0.003,-0.377505 0.0048,-0.397105 z m 0.695351,0.247523 -0.03914,0.03342 c -0.0088,0.0075 0.05191,0.148811 0.06692,0.238382 0.03222,0.19222 0.03978,0.387518 -0.0343,0.563593 -0.02414,0.05738 0.02663,0.102563 0.02603,0.258898 -7.35e-4,0.191295 -0.01429,0.1299 0.0359,0.279812 0.104842,0.313157 0.145012,0.265729 0.414954,0.400667 0.243741,0.121842 0.305818,0.207617 0.549544,0.100965 0.117207,-0.05129 0.177238,-0.09525 0.214527,-0.147146 0.146932,-0.204518 0.271766,-0.294562 0.518505,-0.375193 0.09483,-0.03099 0.259247,-0.09414 0.285478,-0.0905 0.0074,-0.0033 0.07329,-0.05613 0.08951,-0.05693 0.01363,-0.0029 0.280408,-0.149626 0.360792,-0.190106 0.251869,-0.126865 0.166079,-0.04349 0.265835,-0.34 0.06653,-0.197744 0.0073,-0.388875 -0.02466,-0.593443 -0.06684,-0.426856 -0.127437,-0.541815 -0.475074,-0.702433 -0.07534,-0.03481 -0.186029,-0.145988 -0.229432,-0.145988 -0.07454,0 -0.362145,-0.143288 -0.491418,-0.230022 -0.0872,-0.07278 -0.294205,-0.123862 -0.35632,-0.182865 -0.0079,-0.0207 -0.127338,-0.07276 -0.218776,-0.09902 -0.109167,-0.03136 -0.203165,0.02544 -0.320231,0.04916 -0.190368,0.03857 -0.225843,0.127563 -0.378096,0.27479 -0.0948,0.09167 -0.171291,0.142337 -0.227997,0.254769 -0.06208,0.123097 -0.0045,0.203348 -0.02205,0.356379 -0.0085,0.07414 -0.04988,0.346621 -0.10993,0.307753 z m 2.446734,-1.599484 c 0.01585,0.09826 0.06522,0.133572 0.14333,0.210917 0.123836,0.122621 0.154464,0.136952 0.3451,0.136952 0.185493,0 0.335477,9.71e-4 0.495664,-0.105619 0.262238,-0.174487 0.318092,-0.415846 0.318771,-0.692533 2.86e-4,-0.116956 0.0038,-0.124452 -0.0479,-0.223103 -0.07233,-0.138082 -0.165286,-0.1976 -0.332467,-0.241705 -0.09688,-0.02556 -0.23262,-0.02856 -0.339395,5.3e-5 -0.173122,0.04643 -0.265481,0.0988 -0.398977,0.234953 -0.208366,0.212514 -0.255315,0.238672 -0.213358,0.498816 z m 0.0622,4.216069 c 0.126483,0.25288 0.174623,0.333105 0.456421,0.449388 0.215416,0.08889 0.33995,0.07345 0.520387,-0.02119 0.09373,-0.04915 0.193387,-0.123454 0.23778,-0.217489 0.04643,-0.09836 0.05616,-0.120897 0.05593,-0.228146 C 27.657655,78.2513 27.546497,78.118494 27.36891,77.943425 27.07716,77.6558 26.839073,77.620667 26.535644,77.7887 c -0.117533,0.06509 -0.15798,0.1605 -0.201136,0.295574 -0.03496,0.109416 -0.0862,0.12803 -0.02293,0.254523 z m 1.134798,-2.847469 c 0.04687,0.138513 0.06624,0.159396 0.209218,0.189468 0.428412,0.09011 0.510812,0.112346 0.876682,-0.0712 0.121835,-0.06112 0.240087,-0.245497 0.265888,-0.368369 0.0267,-0.127154 -0.02143,-0.339166 -0.07886,-0.45302 -0.135695,-0.268811 -0.364887,-0.269099 -0.73028,-0.205379 -0.358769,0.06256 -0.547121,0.210118 -0.614323,0.513128 -0.0217,0.09783 -0.01254,0.14649 0.01729,0.234644 z m 0.0275,1.439123 c 0,0 -0.02963,0.208628 0.07098,0.258698 0.541812,0.269654 0.698554,0.269913 1.097468,0.03961 0.156037,-0.09009 0.161599,-0.14979 0.15291,-0.326506 -0.009,-0.182805 -0.04522,-0.247976 -0.197842,-0.400269 -0.10725,-0.107024 -0.13768,-0.109061 -0.273008,-0.15695 -0.13916,-0.04925 -0.153568,-0.08592 -0.313909,-0.08067 -0.127719,0.0042 -0.177601,0.01999 -0.263665,0.04917 -0.336339,0.113964 -0.337751,0.306255 -0.272929,0.616915 z"
       id="path655"
       sodipodi:nodetypes="sssssssssssssssssssscssssssssssssssssssssssssssssssccsssssccsssssssssssssssssssssssssssssssssssssscsssccccc" />
    <path
       style="fill:#de87cd;stroke-width:0.00354079"
       d="m 24.083852,75.631558 c 0.0085,-0.09371 0.03171,-0.19469 0.06497,-0.28324 0.04041,-0.107576 0.10988,-0.210909 0.202482,-0.301166 0.06642,-0.06475 0.123711,-0.10567 0.196028,-0.140041 0.105288,-0.05004 0.202284,-0.06744 0.332685,-0.05967 0.104896,0.0063 0.154821,0.01957 0.251543,0.06711 0.04334,0.02131 0.06134,0.03227 0.07658,0.04667 0.193957,0.18328 0.22745,0.21248 0.274577,0.239379 0.048,0.02739 0.137357,0.0689 0.194147,0.09017 0.04497,0.01684 0.07051,0.0234 0.126561,0.03248 0.01898,0.0031 0.05643,0.01278 0.08321,0.02157 0.299464,0.09829 0.512729,0.39727 0.539203,0.755927 0.0057,0.07746 -0.0011,0.1758 -0.01809,0.264291 -0.04767,0.24703 -0.207208,0.47148 -0.410937,0.578146 -0.04081,0.02137 -0.07117,0.03017 -0.121685,0.03527 -0.04032,0.0041 -0.08603,0.01491 -0.168188,0.03984 -0.114913,0.03487 -0.206387,0.08136 -0.304508,0.154747 -0.04842,0.03622 -0.129257,0.114055 -0.160123,0.154182 -0.03924,0.05102 -0.06376,0.07267 -0.105436,0.09309 -0.09944,0.04873 -0.17372,0.06742 -0.281493,0.07081 -0.188303,0.0059 -0.356074,-0.05962 -0.500329,-0.195494 -0.136821,-0.128874 -0.23656,-0.326495 -0.262645,-0.520401 -0.0021,-0.01558 -0.0048,-0.06896 -0.006,-0.118616 -0.0028,-0.115186 2.96e-4,-0.143166 0.02177,-0.198981 0.03437,-0.08933 0.04795,-0.162049 0.05048,-0.270449 0.003,-0.128474 -0.006,-0.175627 -0.06327,-0.332557 l -0.01163,-0.03187 -6.04e-4,-0.08852 c -3.33e-4,-0.04868 -2.6e-5,-0.09489 6.86e-4,-0.102681 z"
       id="path663" />
    <path
       style="fill:#1f1c24;stroke-width:0.00601467"
       d="m 26.198934,73.996962 c 0.0104,-0.06259 0.01044,-0.125985 0.03568,-0.189126 0.09634,-0.241098 0.345535,-0.473034 0.604528,-0.561757 0.08655,-0.02965 0.131226,-0.03674 0.241687,-0.04054 0.119345,-0.0041 0.203975,0.0086 0.276823,0.03324 0.201186,0.06806 0.359962,0.220293 0.414742,0.42348 0.01722,0.06389 0.0071,0.23347 -0.0087,0.305635 -0.06032,0.27491 -0.271294,0.516143 -0.534612,0.650517 -0.134374,0.06857 -0.265692,0.102995 -0.41746,0.102905 -0.194024,-1.06e-4 -0.367655,-0.06509 -0.487689,-0.190556 -0.07807,-0.0816 -0.09724,-0.175996 -0.121312,-0.27355 -0.01596,-0.06468 -0.01497,-0.192351 -0.0037,-0.260248 z m 0.22357,0.164152 c 0.0054,0.02649 0.02109,0.07063 0.03669,0.102966 0.02233,0.04629 0.03573,0.06493 0.07347,0.102251 0.05396,0.05335 0.09592,0.07964 0.164576,0.103105 0.199864,0.0683 0.448006,0.0019 0.625383,-0.167698 0.06395,-0.06109 0.100922,-0.111273 0.140374,-0.190498 0.04791,-0.09621 0.05889,-0.142639 0.05905,-0.24961 1.13e-4,-0.07869 -0.0013,-0.09191 -0.01593,-0.135329 -0.04997,-0.149672 -0.169127,-0.252839 -0.326896,-0.283025 -0.317015,-0.06066 -0.669263,0.173866 -0.750326,0.499552 -0.01778,0.07145 -0.02011,0.150561 -0.0064,0.218286 z"
       id="path37"
       sodipodi:nodetypes="ccscccccccccccccccscccccc" />
    <path
       style="fill:#1f1c24;stroke-width:0.00601467"
       d="m 27.347991,75.257032 c 0.06325,-0.29954 0.331619,-0.563754 0.691442,-0.641261 0.08365,-0.01802 0.291355,-0.02545 0.373344,-0.0088 0.114337,0.02326 0.257542,0.07213 0.342214,0.12915 0.04751,0.03199 0.109338,0.120774 0.142535,0.167076 0.03621,0.05051 0.07743,0.131031 0.09348,0.19519 0.01085,0.04335 0.01633,0.07092 0.01652,0.146619 2.65e-4,0.108376 -0.01182,0.191074 -0.05738,0.287266 -0.119071,0.251682 -0.358086,0.399796 -0.67045,0.468053 -0.08562,0.01871 -0.31498,0.02596 -0.398411,0.0084 -0.154562,-0.03245 -0.291405,-0.121036 -0.387415,-0.215953 -0.07152,-0.0707 -0.100798,-0.135857 -0.129701,-0.236118 -0.01675,-0.05809 -0.02878,-0.239985 -0.01617,-0.29967 z m 0.195709,0.206822 c 0.04672,0.182663 0.198906,0.314481 0.413592,0.358233 0.07413,0.01511 0.198003,0.01664 0.273999,0.0034 0.277972,-0.04847 0.506098,-0.245872 0.554107,-0.479467 0.05494,-0.267338 -0.131665,-0.50822 -0.43484,-0.561316 -0.06576,-0.01151 -0.188135,-0.01122 -0.256339,5.29e-4 -0.277474,0.04812 -0.510016,0.250703 -0.555832,0.48423 -0.0099,0.05059 -0.0074,0.14483 0.0053,0.194339 z"
       id="path39"
       sodipodi:nodetypes="ccccccccscccccsccccccss" />
    <path
       style="fill:#1f1c24;stroke-width:0.00601467"
       d="m 27.339979,76.884 c 0.01582,-0.203266 0.149,-0.384927 0.357272,-0.487381 0.141759,-0.06973 0.215061,-0.08377 0.414097,-0.0793 0.14497,0.0033 0.176109,0.008 0.285636,0.04393 0.142767,0.04677 0.241107,0.106153 0.350605,0.211722 0.153138,0.147643 0.215984,0.263692 0.234219,0.432501 0.02405,0.222581 -0.06275,0.408475 -0.254611,0.545338 -0.254233,0.181356 -0.624366,0.194442 -0.93672,0.03312 C 27.49099,77.42925 27.318392,77.161087 27.339979,76.884 Z m 0.209936,0.198482 c 0.02755,0.08661 0.06787,0.153781 0.134805,0.224568 0.136107,0.143954 0.330232,0.225211 0.538814,0.225541 0.247147,2.65e-4 0.43996,-0.106457 0.530037,-0.293727 0.07583,-0.157652 0.04621,-0.347258 -0.07883,-0.504611 -0.102103,-0.128486 -0.272915,-0.223842 -0.454229,-0.253576 -0.08719,-0.01429 -0.213868,-0.0092 -0.294706,0.01177 -0.131395,0.03416 -0.252426,0.113017 -0.316598,0.20629 -0.02731,0.03969 -0.05866,0.109646 -0.0684,0.152604 -0.01299,0.05737 -0.0083,0.176363 0.0091,0.231129 z"
       id="path41" />
    <path
       style="fill:#1f1c24;stroke-width:0.00601467"
       d="m 26.1995,78.056858 c 0.03008,-0.161539 0.148045,-0.323003 0.291423,-0.398859 0.06127,-0.03242 0.13588,-0.05781 0.204441,-0.06958 0.07128,-0.01222 0.187148,-0.01252 0.256783,-5.29e-4 0.129228,0.02209 0.284046,0.088 0.399032,0.169878 0.07054,0.05023 0.177495,0.1554 0.23023,0.226388 0.07073,0.09521 0.127706,0.220025 0.152656,0.334404 0.01646,0.0755 0.01521,0.237784 -0.0024,0.301615 -0.05694,0.207229 -0.214926,0.367924 -0.412483,0.419547 -0.146489,0.03828 -0.337137,0.02988 -0.48057,-0.02119 -0.238972,-0.08507 -0.449572,-0.267999 -0.558909,-0.48546 -0.07305,-0.145278 -0.105762,-0.339313 -0.08028,-0.476155 z m 0.234223,0.305451 c 0.03286,0.111649 0.08826,0.203956 0.172744,0.287808 0.08878,0.08812 0.200506,0.153033 0.316661,0.183976 0.07708,0.02053 0.214294,0.0232 0.280919,0.0055 0.150283,-0.04003 0.255058,-0.136229 0.30218,-0.27745 0.0146,-0.04378 0.01603,-0.05625 0.01582,-0.138337 -2.03e-4,-0.08024 -0.0021,-0.09608 -0.01632,-0.143145 -0.03258,-0.107112 -0.08046,-0.18813 -0.160113,-0.270949 -0.06377,-0.06631 -0.113281,-0.1039 -0.186931,-0.141939 -0.179401,-0.09266 -0.359016,-0.101835 -0.516276,-0.02638 -0.04642,0.02228 -0.06518,0.03577 -0.105918,0.07618 -0.04114,0.0408 -0.0542,0.05877 -0.07728,0.106246 -0.03713,0.07639 -0.04656,0.122703 -0.04348,0.213521 0.0019,0.05455 0.0062,0.08508 0.01799,0.12501 z"
       id="path43" />
    <path
       style="fill:#1f1c24;stroke-width:0.00601467"
       d="m 23.551185,75.359585 c 0.01111,-0.106312 0.05548,-0.248029 0.09821,-0.364969 0.114726,-0.314013 0.402912,-0.599887 0.700724,-0.695021 0.09806,-0.03132 0.165564,-0.04849 0.288857,-0.04876 0.16845,-2.65e-4 0.248316,0.0189 0.364921,0.06657 0.120343,0.04919 0.156273,0.06915 0.228785,0.138205 0.03652,0.03477 0.118724,0.09753 0.159949,0.135668 0.163417,0.151177 0.145659,0.148973 0.276107,0.214089 0.153424,0.07659 0.253126,0.117169 0.344087,0.13096 0.135954,0.02061 0.314158,0.09544 0.427968,0.177504 0.296757,0.213961 0.484876,0.580675 0.508252,0.98526 0.0071,0.122658 -0.01119,0.321842 -0.04585,0.449432 -0.08612,0.317035 -0.310962,0.615963 -0.573947,0.747262 -0.06561,0.03276 -0.104102,0.03167 -0.155837,0.03723 -0.140142,0.01506 -0.336229,0.08365 -0.471531,0.150868 -0.189762,0.09427 -0.339073,0.222059 -0.462742,0.380307 -0.05705,0.073 -0.09121,0.103726 -0.196188,0.148877 -0.222539,0.09571 -0.473434,0.09486 -0.706529,0.01743 -0.288486,-0.09582 -0.548534,-0.35318 -0.676936,-0.67322 -0.07381,-0.183968 -0.101968,-0.328575 -0.09757,-0.565481 0.0024,-0.123729 0.0083,-0.138494 0.02435,-0.181656 0.06369,-0.171185 0.08703,-0.292003 0.08676,-0.454153 -2.15e-4,-0.12931 -0.02961,-0.232373 -0.08529,-0.38367 -0.01326,-0.03606 -0.02888,-0.0808 -0.03217,-0.09817 -0.0071,-0.03771 -0.01177,-0.242943 -0.0044,-0.314566 z m 0.554596,0.534341 c 0.04267,0.122801 0.04889,0.157673 0.04842,0.27132 -5.29e-4,0.118745 -0.0074,0.162721 -0.04292,0.273669 l -0.02696,0.0842 0.0027,0.138337 c 0.0026,0.130926 0.0037,0.142044 0.02122,0.207507 0.08993,0.336326 0.327509,0.571982 0.622318,0.617276 0.133599,0.02053 0.275712,-2.65e-4 0.393311,-0.0578 0.05264,-0.02572 0.06585,-0.0353 0.09321,-0.06766 0.101137,-0.119645 0.225747,-0.22293 0.335274,-0.277895 0.08807,-0.0442 0.219768,-0.08547 0.326623,-0.102367 0.06585,-0.01043 0.100849,-0.02273 0.151715,-0.05336 0.311115,-0.187412 0.46886,-0.610809 0.370742,-0.995098 -0.05252,-0.205722 -0.170746,-0.384926 -0.32644,-0.494837 -0.0851,-0.06007 -0.173257,-0.09686 -0.286637,-0.119608 -0.07545,-0.01513 -0.129394,-0.03468 -0.232336,-0.08418 -0.09604,-0.04618 -0.126748,-0.06929 -0.267652,-0.201436 -0.07586,-0.07114 -0.102862,-0.09247 -0.144928,-0.114448 -0.08228,-0.043 -0.148556,-0.06251 -0.239943,-0.07064 -0.246375,-0.02191 -0.450784,0.06593 -0.61509,0.264321 -0.09042,0.10918 -0.139219,0.204542 -0.175316,0.342606 -0.02447,0.09364 -0.03245,0.157634 -0.03309,0.265661 l -5.3e-4,0.09858 0.02635,0.07584 z"
       id="path45"
       sodipodi:nodetypes="cccccccccccccccsccsccsccccccccccccccccccccccccccccc" />
  </g>
</svg>
